<svg xmlns="http://www.w3.org/2000/svg" viewBox="0 0 200 200"><title>logo-black</title><g id="图层_1" data-name="图层 1"><g id="wihSZJ.tif"><path d="M95.25,118.2c-.63-.81-1.18-1.57-1.81-2.29a7,7,0,0,0-1-.76A23.6,23.6,0,0,1,88,110.36c-.74-1-1.53-2-2.2-3-.85-1.3-1.6-2.65-2.4-4-.2-.34-.33-.77-.68-1-1.11-.66-1.06-1.67-1.48-2.53a17.46,17.46,0,0,1-1-2.83,11.29,11.29,0,0,1,.36-7.56,26.89,26.89,0,0,1,2.32-4c.5-.82,1-1.63,1.58-2.43.94-1.3,1.94-2.59,2.89-3.89,1.39-1.91,2.82-3.81,4.12-5.75a13.24,13.24,0,0,0,1.18-2.64q.89-2.25,1.71-4.52c.44-1.18.91-2.35,1.24-3.54s.37-2.16.6-3.24.54-2.25.84-3.38q.81-3.15,1.65-6.3c.43-1.62.86-3.25,1.33-5,.29,1.12.56,2.12.82,3.12.38,1.46.77,2.93,1.13,4.39.73,2.91,1.47,5.82,2.13,8.74a26.14,26.14,0,0,0,1.09,3.81c1,2.71,2,5.43,3.15,8.11a19.93,19.93,0,0,0,2.17,3.38c1.07,1.51,2.2,3,3.32,4.49.56.74,1.18,1.45,1.72,2.2s1.1,1.64,1.62,2.47c.66,1,1.33,2.09,1.93,3.15a10.79,10.79,0,0,1,1.15,4.7,11.6,11.6,0,0,1-.85,5c-.45,1.17-1,2.33-1.46,3.5-.07.17,0,.43-.49.35,0,0-.16.17-.22.27-.7,1.17-1.34,2.37-2.11,3.51-1,1.42-2,2.8-3,4.19a19.75,19.75,0,0,1-4.46,4.89,9.08,9.08,0,0,0-2.73,3.12c-.06-.13-.13-.21-.11-.28a27.23,27.23,0,0,1,.76-2.78,14,14,0,0,1,1-1.64,7.35,7.35,0,0,0,.58-1.32c.68-2,1.39-3.93,2-5.92.43-1.52.7-3.07,1-4.62s.41-3.31.86-4.93c.7-2.51-.49-4.68-1.78-6.85s-3.38-3.75-5.49-5.38c-.73-.56-1.41-1.16-2.14-1.73-1.62-1.27-1.61-1.27-3.18,0s-2.93,2.3-4.34,3.5a14,14,0,0,0-2.37,2.3,35,35,0,0,0-2.23,3.81,5.34,5.34,0,0,0-.71,3.33c.13.91.32,1.81.49,2.71.4,2.17.71,4.36,1.22,6.51.44,1.85,1.1,3.68,1.68,5.51a17.46,17.46,0,0,0,.77,2.09,11.18,11.18,0,0,0,.94,1.68,4.15,4.15,0,0,1,.83,2,9.85,9.85,0,0,0,.42,1.57A3.31,3.31,0,0,1,95.25,118.2Z"/><path d="M141.05,84.37a1.62,1.62,0,0,1-.54-.14c-1.65-1.22-3.25-2.49-3.54-4.32a28.3,28.3,0,0,1-.27-3.44,21.83,21.83,0,0,0,.05-2.68c-.22-1.39.48-2.63.81-3.93.42-1.61,1.14-3.18,1.55-4.79a26.42,26.42,0,0,0,.57-4,32.79,32.79,0,0,0-.53-8.67c-.74-4.2-1.53-8.41-2.25-12.61a42.16,42.16,0,0,1-1-8.26c.05-1.23.27-2.45.4-3.67.05-.45.05-.91.14-1.36a.77.77,0,0,1,.42-.45c2-.86,4.07-1.68,6.08-2.55,2.45-1.06,4.87-2.14,7.28-3.24,2.64-1.2,5.27-2.41,7.88-3.66,1-.47,1.84-1.07,2.79-1.59a5.31,5.31,0,0,1,1-.31c-.19.72-.12,1.39-.72,2a3,3,0,0,0-.47,1.15,72.37,72.37,0,0,0-3.07,10.74c-.6,2.93-1.2,5.87-1.75,8.81-.37,2-.66,3.94-1,5.91-.26,1.64-.49,3.27-.7,4.91-.08.58,0,1.17-.06,1.76-.06.95-.16,1.91-.2,2.86-.06,1.21-.05,2.42-.11,3.62a9.74,9.74,0,0,1-1.59,4.47,31.13,31.13,0,0,1-4.37,5.17,21.59,21.59,0,0,0-2,2.53,35.94,35.94,0,0,0-4.45,7.19,10.13,10.13,0,0,0-1,4.58c0,.76.31,1.51.42,2.26C141,83.17,141,83.71,141.05,84.37Z"/><path d="M38.4,14.62c.45.26.88.54,1.35.78,1.17.6,2.36,1.18,3.54,1.76,1.49.73,3,1.47,4.47,2.16,2,.92,4.1,1.78,6.15,2.68,1.5.66,3,1.36,4.49,2,1.34.57,2.7,1.12,4.07,1.64s1.51.86,1.32,2a1.88,1.88,0,0,0,.09.74,18.09,18.09,0,0,1,.08,6.8c-.65,3.87-1.39,7.73-2.05,11.6-.48,2.82-.94,5.65-1.34,8.47a27.74,27.74,0,0,0,0,7.45A18.32,18.32,0,0,0,61,65.21c.38,1.35.94,2.67,1.36,4a16.52,16.52,0,0,1,1.06,4.1,23.52,23.52,0,0,1,.06,2.91c-.08,1-.12,2.1-.25,3.15a5.48,5.48,0,0,1-1.94,3.51c-.53.46-1.1.9-1.67,1.33a2.75,2.75,0,0,1-.66.17c.17-1.11.29-2.12.5-3.11a9,9,0,0,0-.57-4.84,23.9,23.9,0,0,0-3.17-5.69c-1.06-1.55-2.23-3.07-3.41-4.58-.45-.58-1.11-1.06-1.59-1.64Q49.33,62.82,48,61.05c-1.72-2.27-1.85-4.76-1.8-7.28A32.33,32.33,0,0,0,46,50.09c-.18-1.92-.35-3.83-.59-5.74-.19-1.6-.46-3.18-.73-4.77s-.59-3.33-.92-5c-.51-2.56-1-5.13-1.61-7.68S40.69,21.86,40,19.34a12.7,12.7,0,0,0-.8-2.29,5.4,5.4,0,0,1-.84-1.87c0-.15,0-.3-.06-.46Z"/><path d="M132.53,112.93a9.24,9.24,0,0,1-3.19-1.57c-1-.74-2-1.4-3-2.11a6.46,6.46,0,0,1-2.75-3.52c-.54-2.32.59-4.06,3.19-5.36a26.27,26.27,0,0,1,3.58-1.59,1.08,1.08,0,0,0,.57-.56,20.37,20.37,0,0,0,1.7-4.8,8.37,8.37,0,0,0-.87-5.1c-.88-1.91-2.66-3.33-4.37-4.79-1.48-1.27-3.48-2.07-5.09-3.22-.85-.6-1.59-1.29-2.38-1.93a10,10,0,0,0-1-.79A5.19,5.19,0,0,1,117,75.66a13.92,13.92,0,0,0-1.22-1.61,5.19,5.19,0,0,1-1.32-2.63c-.11-.88-.4-1.74-.52-2.62-.21-1.61-.4-3.22-.5-4.83-.13-2-.14-3.94-.24-5.92-.12-2.33-.17-4.67-.45-7a90,90,0,0,1-.79-9.41c0-2.15,0-4.31,0-6.46,0-1.39,0-2.78-.09-4.17,0-.28,0-.46.46-.59,1.81-.57,3.6-1.19,5.4-1.77l4.88-1.57c.31-.1.64-.17,1.11-.29a70.72,70.72,0,0,1,.23,7.8c0,3-.07,5.95-.07,8.92,0,3.28.11,6.56.06,9.83,0,1.84-.3,3.67-.43,5.5a6.84,6.84,0,0,0,.19,1.16,6.09,6.09,0,0,1,0,.74c0,2.78,0,5.56,0,8.34,0,.9-.11,1.8-.11,2.71,0,1.32,0,2.65.12,4a3.31,3.31,0,0,0,.6,1.26,10.46,10.46,0,0,0,1.49,2.23,13.28,13.28,0,0,0,5,3.32,15.23,15.23,0,0,1,5.06,3.2c.63.56,1.35,1.07,2,1.64,2,1.79,3.1,3.84,2.4,6.16a9.75,9.75,0,0,1-4.09,5.32c-1.31.88-2.51,1.85-3.71,2.82a7.48,7.48,0,0,0-2.55,5,5,5,0,0,0,1.45,4.42c.38.41.74.83,1.07,1.26C132.53,112.49,132.49,112.68,132.53,112.93Z"/><path d="M107,144.14c-.15-1.3-.33-2.6-.43-3.89-.07-1,.08-2.1-.08-3.12a21,21,0,0,1,.28-6.61,1.76,1.76,0,0,0,0-.25c-.27.28-.48.48-.67.69-1.13,1.29-2.24,2.6-3.41,3.87a2.43,2.43,0,0,0-.7,1.57c-.11,2.08-.35,4.16-.62,6.23-.16,1.29-.43,2.57-.7,3.84a10.6,10.6,0,0,1-.47,1.41h-.2a21.68,21.68,0,0,1-.63-2.29c-.39-2.44-.75-4.88-1.06-7.33-.11-.79,0-1.59-.08-2.38a1.61,1.61,0,0,0-.47-.82c-1.31-1.52-2.65-3-4-4.54a1.89,1.89,0,0,0-.34-.23c.12.92.28,1.76.34,2.61a32.74,32.74,0,0,1,.1,3.43c-.08,1.91-.21,3.82-.37,5.73,0,.69-.24,1.38-.37,2.14a18.62,18.62,0,0,0-.57-2.52c-.71-2-1.54-4-2.26-6-.53-1.5-1-3-1.43-4.53S88,128.39,87.7,127c-.52-2.16-1-4.33-1.46-6.5-.22-1-.37-2-.56-3,0-.09-.1-.18-.1-.27a5.81,5.81,0,0,1,0-.59,2.31,2.31,0,0,1,.82.08c1,.54,1.94,1.1,2.85,1.7,2,1.34,3.92,2.7,5.87,4.06,1.55,1.07,3.09,2.13,4.63,3.21a.47.47,0,0,0,.66,0c2-1.4,4-2.81,6-4.18,2.23-1.52,4.51-3,6.77-4.49a3.21,3.21,0,0,1,.76-.39,1.11,1.11,0,0,1,.62.05c.1,0,.14.25.12.36-.3,1.44-.59,2.88-.92,4.31-.39,1.68-.81,3.35-1.21,5-.34,1.38-.67,2.77-1,4.15-.24.93-.51,1.85-.82,2.77-.59,1.74-1.21,3.48-1.84,5.21-.45,1.28-1,2.54-1.39,3.82a13,13,0,0,0-.36,1.86Z"/><path d="M71.43,101.81a27.21,27.21,0,0,1-2.74-1.18c-1.87-1.08-3.64-2.27-5.51-3.35a7.55,7.55,0,0,1-2.12-1.52A5,5,0,0,1,59.86,91a9.79,9.79,0,0,1,4-4.92c.62-.46,1.2-.94,1.77-1.42a16.2,16.2,0,0,1,4-2.26c1.56-.68,3.17-1.33,4.62-2.14a6.08,6.08,0,0,0,2.5-2.66,6.85,6.85,0,0,0,.53-4.54,30.05,30.05,0,0,0-1.48-5.17c-1-2.67-2.24-5.29-3.4-7.93-.08-.19-.39-.32-.59-.48s-.25-.21-.37-.32c.19-.07.39-.22.57-.2.88.1,1.78.2,2.65.37s1.72.47,2.59.66a11.41,11.41,0,0,1,4.36,2.14,13.65,13.65,0,0,1,3.61,3.62,4.89,4.89,0,0,1,.94,3.88,22.45,22.45,0,0,1-.92,3.17,10.31,10.31,0,0,1-1.34,1.93,19.25,19.25,0,0,1-1.49,1.91A16.94,16.94,0,0,1,80.77,78a16.59,16.59,0,0,1-1.72,1.51c-1.51,1-3.12,1.92-4.66,2.91a19.55,19.55,0,0,0-2.06,1.52,15,15,0,0,0-3.45,3.54,9.76,9.76,0,0,0-1.42,3.83c-.31,2.46.75,4.71,1.79,7a9.61,9.61,0,0,0,.93,1.42l1.37,2Z"/><path d="M70.24,53.23l1.55-.49A3.77,3.77,0,0,0,74,50.86a13.94,13.94,0,0,0,2-5.48c.12-1.36.28-2.72.42-4.09.16-1.56.3-3.12.48-4.68a28.71,28.71,0,0,0-.08-7.35c-.12-.78-.21-1.57-.33-2.48l1.53.44c2.38.73,4.76,1.45,7.12,2.2,1,.32,2,.71,3,1.09a.42.42,0,0,1,.19.35c0,4.07,0,8.15-.19,12.22a11.3,11.3,0,0,1-1.24,3.53,9.38,9.38,0,0,1-3.71,3.83,20.17,20.17,0,0,1-5.27,2.84,12.22,12.22,0,0,1-5.1.88A5.6,5.6,0,0,1,70.24,53.23Z"/><path d="M100.07,150.9c1.46,1.18,2.94,2.38,4.41,3.59a6.61,6.61,0,0,1,1.31,1.2,1.7,1.7,0,0,1,.23,1.24c-.3,1.55-.67,3.1-1,4.64-.64,2.66-1.28,5.32-2,8-.56,2.16-1.24,4.3-1.73,6.47-.36,1.57-.48,3.16-.74,4.75a29.36,29.36,0,0,1-.64,3c-.06-.54-.12-1.08-.19-1.62-.16-1.3-.39-2.6-.47-3.9A33.64,33.64,0,0,0,98,172.79c-.33-1.43-.79-2.85-1.15-4.28-.58-2.33-1.14-4.66-1.7-7-.37-1.53-.76-3.06-1.05-4.59a1.43,1.43,0,0,1,.25-1.24,35.39,35.39,0,0,1,2.89-2.51C98.16,152.4,99.12,151.66,100.07,150.9Z"/><path d="M114.19,168.66c0,.21.13.39.08.55-.48,1.78-.07,3.55.09,5.33.11,1.23.24,2.46.35,3.68,0,0,0,.08-.09.16a16.87,16.87,0,0,1-1.36-5.28c-.08-2.45-.23-4.89-.23-7.33,0-1.7.15-3.41.26-5.11.1-1.52.17-3,.34-4.55.23-2,.49-3.94.83-5.9.4-2.26.87-4.51,1.37-6.75.28-1.28.69-2.54,1.06-3.81a7.82,7.82,0,0,1,.44-.92c.5.46.94.81,1.31,1.2a53.28,53.28,0,0,1,5.52,6.61c.35.54.68,1.1,1,1.66a1,1,0,0,1-.12,1.23c-1,1.23-1.93,2.49-2.8,3.77-1.47,2.16-2.94,4.31-4.27,6.52a31.22,31.22,0,0,0-2,4.25c-.57,1.43-1,2.91-1.47,4.36A1.14,1.14,0,0,1,114.19,168.66Z"/><path d="M82.9,138.85c.22.6.5,1.19.66,1.8.55,2,1.12,4.1,1.57,6.16.31,1.43.45,2.88.66,4.33.17,1.17.37,2.34.51,3.51.21,1.82.43,3.64.54,5.46.14,2.46.24,4.93.23,7.39a57.44,57.44,0,0,1-.32,6.43,26.26,26.26,0,0,1-1,3.82,1.47,1.47,0,0,1-.28.58,5.77,5.77,0,0,1,0-.72c.19-2.19.43-4.37.59-6.56a11.83,11.83,0,0,0-.19-1.76,3.45,3.45,0,0,1,.06-.67s-.21-.15-.24-.29a27.67,27.67,0,0,0-2.41-6.49A54.14,54.14,0,0,0,80,156.27c-1.31-2-2.83-3.87-4.26-5.8a4.86,4.86,0,0,1-.9-1.36,1.93,1.93,0,0,1,.3-1.32,35,35,0,0,1,4.25-5.62c.9-1,1.85-2,2.79-2.94a4,4,0,0,1,.45-.37Z"/><path d="M61.59,101.14a40.33,40.33,0,0,1,6.91,3.51c1,.72,2.17,1.33,3.09,2.11a19.37,19.37,0,0,1,2.33,2.48,27.28,27.28,0,0,1,2.18,2.82,17.19,17.19,0,0,1,1.64,3.15,24.34,24.34,0,0,1,1,3.72,6.31,6.31,0,0,1-.9,4.44A16.34,16.34,0,0,1,76,126.11c-.67.77-1.61,1.4-2.37,2.13a15.56,15.56,0,0,0-1.24,1.47,1.65,1.65,0,0,1-.41.37c.39-5.14-.89-10.09-2.51-15A44,44,0,0,0,61.59,101.14Z"/><path d="M128.29,129.85c-.63-.73-1.18-1.34-1.68-2-1.58-2-3.12-4-4.7-6a3.07,3.07,0,0,1-.6-2.61,21.9,21.9,0,0,1,1.57-5.4c.28-.56.64-1.1,1-1.74.65.66,1.22,1.25,1.78,1.84,1.16,1.19,2.29,2.4,3.49,3.57a1.29,1.29,0,0,1,.4,1.38c-.32,1.39-.49,2.81-.93,4.18-.55,1.75-.32,3.52-.51,5.28A7,7,0,0,0,128.29,129.85Z"/><path d="M126.84,142.26c-.72-.69-1.39-1.31-2-1.95-1.38-1.36-2.74-2.74-4.14-4.08-.39-.38-1-.63-1.34-1a5.49,5.49,0,0,1-1.22-1.94,23,23,0,0,1-.47-3.7,5.14,5.14,0,0,1,.89-3c.15-.25.33-.49.51-.74.3.32.65.66,1,1a33.15,33.15,0,0,0,4.88,5c.4.32.89.58,1.32.88a.79.79,0,0,1,.27.34,17.58,17.58,0,0,1,.86,7.66,4.79,4.79,0,0,1-.16.92A6.08,6.08,0,0,1,126.84,142.26Z"/><path d="M78.75,130.84c.75-1.71,1.49-3.43,2.26-5.19a6.14,6.14,0,0,1,1.46,3.23,20.63,20.63,0,0,1-.14,3,7.8,7.8,0,0,1-.35,1.56,5.67,5.67,0,0,1-2.63,3c-1.4.84-2.83,1.64-4.29,2.42a6.65,6.65,0,0,1-1.41.45,1.08,1.08,0,0,1-.38-.05.58.58,0,0,1,.09-.29,21.6,21.6,0,0,0,4.17-6c.3-.64.66-1.27,1-1.9,0-.09.21-.15.32-.22Z"/></g></g></svg>